<?xml version="1.0" encoding="UTF-8" standalone="no"?>
<svg
   xmlns:dc="http://purl.org/dc/elements/1.1/"
   xmlns:cc="http://creativecommons.org/ns#"
   xmlns:rdf="http://www.w3.org/1999/02/22-rdf-syntax-ns#"
   xmlns:svg="http://www.w3.org/2000/svg"
   xmlns="http://www.w3.org/2000/svg"
   width="176.3811mm"
   height="106.26649mm"
   viewBox="0 0 176.3811 106.26649"
   version="1.1"
   id="svg8">
  <defs
     id="defs2" />
  <metadata
     id="metadata5">
    <rdf:RDF>
      <cc:Work
         rdf:about="">
        <dc:format>image/svg+xml</dc:format>
        <dc:type
           rdf:resource="http://purl.org/dc/dcmitype/StillImage" />
        <dc:title></dc:title>
      </cc:Work>
    </rdf:RDF>
  </metadata>
  <g
     id="layer1"
     transform="translate(-17.4949,-98.328514)">
    <g
       id="g109"
       style="fill:#808080"
       transform="translate(161.43079,56.66114)">
      <path
         id="path76"
         style="fill:#808080;fill-rule:evenodd;stroke-width:0.234323"
         d="m -137.01783,92.624835 v 0.0088 a 7.2323073,9.2207984 0 0 0 -6.91806,9.211835 7.2323073,9.2207984 0 0 0 6.91806,9.21184 v 0.14263 h 96.602975 c 0.183637,-1.7893 0.53438,-5.2599 1.230965,-12.263333 l 4.566365,-6.311759 z" />
      <path
         id="path24"
         style="fill:#808080;fill-rule:evenodd;stroke-width:0.2434"
         d="m -136.36449,56.393974 v 0.0088 c -4.17382,0.214507 -7.46425,4.275255 -7.46436,9.211841 1.1e-4,4.936585 3.29054,8.997332 7.46436,9.211839 v 0.142629 h 116.08735 l 10.6988023,-14.048755 0.031923,0.05426 3.0044616,-3.849377 c -0.8232268,-0.412345 -1.7003042,-0.654442 -2.5929338,-0.715719 v -0.0155 H -9.587087 -9.617698 Z" />
      <path
         id="path36"
         style="fill:#808080;fill-rule:evenodd;stroke-width:0.239686"
         d="m -136.6519,129.35855 v 0.009 a 7.5670872,9.2207984 0 0 0 -7.23828,9.21185 7.5670872,9.2207984 0 0 0 7.23828,9.21183 v 0.14263 h 123.37603 v -0.14934 a 7.5670872,9.2207984 0 0 0 7.1284417,-9.20512 7.5670872,9.2207984 0 0 0 -7.1284417,-9.20513 v -0.0155 h -0.438504 -0.02968 z" />
      <path
         id="path38"
         style="opacity:1;fill:#808080;stroke-width:0.154251"
         d="M 27.571358,44.245648 A 12.063591,11.492913 37.528551 0 0 11.20852,45.79207 l -0.0031,-0.0026 -0.182108,0.237086 a 12.063591,11.492913 37.528551 0 0 -0.01449,0.01893 l -1.4585129,1.89881 19.1339889,14.69718 1.472997,-1.917668 a 12.063591,11.492913 37.528551 0 0 0.01468,-0.0191 l 0.167453,-0.218007 -0.0033,-0.0026 a 12.063591,11.492913 37.528551 0 0 -2.745019,-16.223462 12.063591,11.492913 37.528551 0 0 -0.0198,-0.01525 z M 7.8820313,50.116369 -32.171045,102.26071 c -0.669565,18.53433 -0.708104,18.55783 -0.708104,18.55783 l 0.03707,0.0874 a 1.2511398,0.71252553 37.528551 0 0 0.544045,1.28161 l 0.01392,0.0327 0.03881,0.008 a 1.2511398,0.71252553 37.528551 0 0 1.317993,0.2633 l 0.09254,0.0187 17.79791,-5.55189 40.053041,-52.144289 z" />
    </g>
  </g>
</svg>
